<?xml version="1.0" encoding="utf-8"?>
<!-- Generator: Adobe Illustrator 25.1.0, SVG Export Plug-In . SVG Version: 6.00 Build 0)  -->
<svg version="1.1" id="Layer_1" xmlns="http://www.w3.org/2000/svg" xmlns:xlink="http://www.w3.org/1999/xlink" x="0px" y="0px"
	 viewBox="0 0 504 216" style="enable-background:new 0 0 504 216;" xml:space="preserve">
<style type="text/css">
	.st0{fill:#96CCEE;}
	.st1{fill:#FFFFFF;}
	.st2{fill:#1C73B6;}
	.st3{fill:none;}
	.st4{font-family:'Inter-Regular';}
	.st5{font-size:8px;}
</style>
<g>
	<path class="st0" d="M483.91,101.22V76.19c0-5.83-4.72-10.55-10.55-10.55h-95.47c-5.83,0-10.55,4.72-10.55,10.55v65.27
		c0,5.83,4.72,10.55,10.55,10.55h95.47c5.83,0,10.55-4.72,10.55-10.55v-25.04"/>
	<path class="st1" d="M484.54,116.71v24.74c0,6.17-5.02,11.18-11.18,11.18h-95.47c-6.17,0-11.18-5.02-11.18-11.18V76.19
		c0-6.17,5.02-11.18,11.18-11.18h95.47c6.17,0,11.18,5.02,11.18,11.18v24.74 M483.27,101.51V76.19c0-5.47-4.45-9.92-9.92-9.92
		h-95.47c-5.47,0-9.92,4.45-9.92,9.92v65.27c0,5.47,4.45,9.92,9.92,9.92h95.47c5.47,0,9.92-4.45,9.92-9.92v-25.33"/>
</g>
<g>
	<path class="st2" d="M406.44,81.1v-1.18c0-0.54-0.26-0.81-0.79-0.81h-0.28c-0.51,0-0.77,0.27-0.77,0.81v2.24
		c0,0.25,0.05,0.42,0.15,0.51c0.1,0.09,0.26,0.2,0.49,0.34l1.71,0.92c0.38,0.21,0.64,0.38,0.8,0.5c0.16,0.12,0.28,0.26,0.37,0.43
		c0.09,0.17,0.13,0.49,0.13,0.97v2.88c0,1.52-0.73,2.28-2.18,2.28h-1.11c-1.44,0-2.16-0.83-2.16-2.48v-0.68h1.81v0.73
		c0,0.53,0.27,0.79,0.81,0.79h0.32c0.48,0,0.72-0.26,0.72-0.79v-2.29c0-0.25-0.05-0.42-0.15-0.51c-0.1-0.09-0.26-0.2-0.49-0.34
		l-1.71-0.96c-0.38-0.2-0.65-0.37-0.82-0.51c-0.17-0.14-0.29-0.32-0.37-0.54c-0.08-0.22-0.11-0.5-0.11-0.86v-2.76
		c0-1.54,0.72-2.31,2.16-2.31h1.13c1.44,0,2.16,0.77,2.16,2.31v1.32H406.44z"/>
	<path class="st2" d="M413,79.11v11.86h-1.8V79.11h-1.73v-1.64h5.26v1.64H413z"/>
	<path class="st2" d="M416.14,90.98v-13.5h4.48v1.64h-2.67v4.1h2.37v1.64h-2.37v4.49h2.67v1.64H416.14z"/>
	<path class="st2" d="M422.29,77.48h3.29c1.45,0,2.18,0.77,2.18,2.31v4c0,1.53-0.72,2.29-2.16,2.29h-1.5v4.89h-1.81V77.48z
		 M424.09,84.45h1.15c0.48,0,0.71-0.26,0.71-0.79V79.9c0-0.53-0.27-0.79-0.81-0.79h-1.05V84.45z"/>
	<path class="st2" d="M435.11,90.98c-1.44,0-2.16-0.77-2.16-2.31v-8.87c0-1.54,0.72-2.31,2.16-2.31h1.26c1.44,0,2.16,0.77,2.16,2.31
		v8.87c0,1.54-0.72,2.31-2.16,2.31H435.11z M435.47,79.11c-0.48,0-0.71,0.26-0.71,0.79v8.65c0,0.53,0.27,0.79,0.81,0.79h0.45
		c0.48,0,0.71-0.26,0.71-0.79V79.9c0-0.53-0.27-0.79-0.81-0.79H435.47z"/>
	<path class="st2" d="M446.37,87.82h-1.03v3.16h-1.77v-3.16h-3.16l-0.38-1.52l3.5-8.82h1.8v8.82h1.03V87.82z M443.76,81.07h-0.09
		l-1.71,5.23h1.67L443.76,81.07z"/>
</g>
<g>
	<path class="st2" d="M376.59,108.82l-8.96-7.6V76.19c0-5.83-4.72-10.55-10.55-10.55h-95.47c-5.83,0-10.55,4.72-10.55,10.55v65.27
		c0,5.83,4.72,10.55,10.55,10.55h95.47c5.83,0,10.55-4.72,10.55-10.55v-25.04L376.59,108.82z"/>
	<path class="st1" d="M357.09,152.64h-95.47c-6.17,0-11.18-5.02-11.18-11.18V76.19c0-6.17,5.02-11.18,11.18-11.18h95.47
		c6.17,0,11.18,5.02,11.18,11.18v24.74l9.3,7.89l-9.3,7.89v24.74C368.27,147.62,363.25,152.64,357.09,152.64z M261.61,66.27
		c-5.47,0-9.92,4.45-9.92,9.92v65.27c0,5.47,4.45,9.92,9.92,9.92h95.47c5.47,0,9.92-4.45,9.92-9.92v-25.33l8.61-7.31l-8.61-7.31
		V76.19c0-5.47-4.45-9.92-9.92-9.92H261.61z"/>
</g>
<g>
	<path class="st1" d="M292.48,81.1v-1.18c0-0.54-0.26-0.81-0.79-0.81h-0.28c-0.51,0-0.77,0.27-0.77,0.81v2.24
		c0,0.25,0.05,0.42,0.15,0.51c0.1,0.09,0.26,0.2,0.49,0.34l1.71,0.92c0.38,0.21,0.64,0.38,0.8,0.5c0.16,0.12,0.28,0.26,0.37,0.43
		c0.09,0.17,0.13,0.49,0.13,0.97v2.88c0,1.52-0.73,2.28-2.18,2.28h-1.11c-1.44,0-2.16-0.83-2.16-2.48v-0.68h1.81v0.73
		c0,0.53,0.27,0.79,0.81,0.79h0.32c0.48,0,0.71-0.26,0.71-0.79v-2.29c0-0.25-0.05-0.42-0.15-0.51c-0.1-0.09-0.26-0.2-0.49-0.34
		l-1.71-0.96c-0.38-0.2-0.65-0.37-0.82-0.51c-0.17-0.14-0.29-0.32-0.37-0.54c-0.08-0.22-0.11-0.5-0.11-0.86v-2.76
		c0-1.54,0.72-2.31,2.16-2.31h1.13c1.44,0,2.16,0.77,2.16,2.31v1.32H292.48z"/>
	<path class="st1" d="M299.04,79.11v11.86h-1.8V79.11h-1.73v-1.64h5.26v1.64H299.04z"/>
	<path class="st1" d="M302.18,90.98v-13.5h4.48v1.64h-2.67v4.1h2.37v1.64h-2.37v4.49h2.67v1.64H302.18z"/>
	<path class="st1" d="M308.33,77.48h3.29c1.45,0,2.18,0.77,2.18,2.31v4c0,1.53-0.72,2.29-2.16,2.29h-1.5v4.89h-1.81V77.48z
		 M310.13,84.45h1.15c0.48,0,0.71-0.26,0.71-0.79V79.9c0-0.53-0.27-0.79-0.81-0.79h-1.05V84.45z"/>
	<path class="st1" d="M321.15,90.98c-1.44,0-2.16-0.77-2.16-2.31v-8.87c0-1.54,0.72-2.31,2.16-2.31h1.26c1.44,0,2.16,0.77,2.16,2.31
		v8.87c0,1.54-0.72,2.31-2.16,2.31H321.15z M321.51,79.11c-0.48,0-0.71,0.26-0.71,0.79v8.65c0,0.53,0.27,0.79,0.81,0.79h0.45
		c0.48,0,0.71-0.26,0.71-0.79V79.9c0-0.53-0.27-0.79-0.81-0.79H321.51z"/>
	<path class="st1" d="M330.64,84.04c0.94,0.25,1.41,0.82,1.41,1.71v2.93c0,1.53-0.72,2.29-2.16,2.29h-1.22
		c-1.44,0-2.16-0.76-2.16-2.29v-0.87h1.8v0.73c0,0.53,0.24,0.79,0.72,0.79h0.41c0.54,0,0.81-0.26,0.81-0.79v-2.78
		c0-0.59-0.35-0.88-1.05-0.88h-0.49v-1.52h0.26c0.7,0,1.05-0.29,1.05-0.88v-2.56c0-0.53-0.27-0.79-0.81-0.79h-0.24
		c-0.48,0-0.71,0.26-0.71,0.79v1.37h-1.81v-1.5c0-1.54,0.72-2.31,2.16-2.31h1.05c1.44,0,2.16,0.77,2.16,2.31v2.69
		C331.83,83.33,331.43,83.85,330.64,84.04z"/>
</g>
<g>
	<path class="st0" d="M260.32,108.82l-8.96-7.6V76.19c0-5.83-4.72-10.55-10.55-10.55h-95.47c-5.83,0-10.55,4.72-10.55,10.55v65.27
		c0,5.83,4.72,10.55,10.55,10.55h95.47c5.83,0,10.55-4.72,10.55-10.55v-25.04L260.32,108.82z"/>
	<path class="st1" d="M240.82,152.64h-95.47c-6.17,0-11.18-5.02-11.18-11.18V76.19c0-6.17,5.02-11.18,11.18-11.18h95.47
		c6.17,0,11.18,5.02,11.18,11.18v24.74l9.3,7.89l-9.3,7.89v24.74C252,147.62,246.99,152.64,240.82,152.64z M145.35,66.27
		c-5.47,0-9.92,4.45-9.92,9.92v65.27c0,5.47,4.45,9.92,9.92,9.92h95.47c5.47,0,9.92-4.45,9.92-9.92v-25.33l8.61-7.31l-8.61-7.31
		V76.19c0-5.47-4.45-9.92-9.92-9.92H145.35z"/>
</g>
<g>
	<path class="st2" d="M172.31,81.1v-1.18c0-0.54-0.26-0.81-0.79-0.81h-0.28c-0.51,0-0.77,0.27-0.77,0.81v2.24
		c0,0.25,0.05,0.42,0.15,0.51c0.1,0.09,0.26,0.2,0.49,0.34l1.71,0.92c0.38,0.21,0.64,0.38,0.8,0.5c0.16,0.12,0.28,0.26,0.37,0.43
		c0.09,0.17,0.13,0.49,0.13,0.97v2.88c0,1.52-0.73,2.28-2.18,2.28h-1.11c-1.44,0-2.16-0.83-2.16-2.48v-0.68h1.8v0.73
		c0,0.53,0.27,0.79,0.81,0.79h0.32c0.48,0,0.71-0.26,0.71-0.79v-2.29c0-0.25-0.05-0.42-0.15-0.51c-0.1-0.09-0.26-0.2-0.49-0.34
		l-1.71-0.96c-0.38-0.2-0.65-0.37-0.82-0.51c-0.17-0.14-0.29-0.32-0.37-0.54c-0.08-0.22-0.11-0.5-0.11-0.86v-2.76
		c0-1.54,0.72-2.31,2.16-2.31h1.13c1.44,0,2.16,0.77,2.16,2.31v1.32H172.31z"/>
	<path class="st2" d="M178.87,79.11v11.86h-1.8V79.11h-1.73v-1.64h5.26v1.64H178.87z"/>
	<path class="st2" d="M182.01,90.98v-13.5h4.48v1.64h-2.67v4.1h2.37v1.64h-2.37v4.49h2.67v1.64H182.01z"/>
	<path class="st2" d="M188.16,77.48h3.29c1.45,0,2.18,0.77,2.18,2.31v4c0,1.53-0.72,2.29-2.16,2.29h-1.5v4.89h-1.8V77.48z
		 M189.96,84.45h1.15c0.48,0,0.71-0.26,0.71-0.79V79.9c0-0.53-0.27-0.79-0.81-0.79h-1.05V84.45z"/>
	<path class="st2" d="M200.98,90.98c-1.44,0-2.16-0.77-2.16-2.31v-8.87c0-1.54,0.72-2.31,2.16-2.31h1.26c1.44,0,2.16,0.77,2.16,2.31
		v8.87c0,1.54-0.72,2.31-2.16,2.31H200.98z M201.34,79.11c-0.48,0-0.72,0.26-0.72,0.79v8.65c0,0.53,0.27,0.79,0.81,0.79h0.45
		c0.48,0,0.72-0.26,0.72-0.79V79.9c0-0.53-0.27-0.79-0.81-0.79H201.34z"/>
	<path class="st2" d="M211.49,89.36v1.62h-4.85v-4.16c0-0.23,0.02-0.41,0.06-0.56c0.04-0.15,0.1-0.29,0.2-0.42
		c0.09-0.13,0.26-0.32,0.5-0.55l1.82-1.75c0.14-0.14,0.25-0.26,0.33-0.36c0.08-0.1,0.14-0.19,0.17-0.25s0.05-0.14,0.06-0.22
		c0.01-0.07,0.01-0.17,0.01-0.3v-2.5c0-0.53-0.26-0.79-0.77-0.79h-0.11c-0.51,0-0.77,0.26-0.77,0.79v1.39h-1.8v-1.5
		c0-1.54,0.72-2.31,2.16-2.31h0.94c1.44,0,2.16,0.77,2.16,2.31v3.23c0,0.25-0.03,0.47-0.1,0.66c-0.07,0.19-0.25,0.42-0.54,0.7
		l-1.99,1.92c-0.25,0.24-0.39,0.4-0.43,0.49c-0.04,0.09-0.06,0.18-0.07,0.26c-0.01,0.09-0.01,0.21-0.01,0.36v1.96H211.49z"/>
</g>
<g>
	<path class="st2" d="M144.06,108.82l-8.96-7.6V76.19c0-5.83-4.72-10.55-10.55-10.55H29.08c-5.83,0-10.55,4.72-10.55,10.55v65.27
		c0,5.83,4.72,10.55,10.55,10.55h95.47c5.83,0,10.55-4.72,10.55-10.55v-25.04L144.06,108.82z"/>
	<path class="st1" d="M124.55,152.64H29.08c-6.17,0-11.18-5.02-11.18-11.18V76.19C17.9,70.02,22.91,65,29.08,65h95.47
		c6.17,0,11.18,5.02,11.18,11.18v24.74l9.3,7.89l-9.3,7.89v24.74C135.73,147.62,130.72,152.64,124.55,152.64z M29.08,66.27
		c-5.47,0-9.92,4.45-9.92,9.92v65.27c0,5.47,4.45,9.92,9.92,9.92h95.47c5.47,0,9.92-4.45,9.92-9.92v-25.33l8.61-7.31l-8.61-7.31
		V76.19c0-5.47-4.45-9.92-9.92-9.92H29.08z"/>
</g>
<g>
	<path class="st1" d="M56.91,81.1v-1.18c0-0.54-0.26-0.81-0.79-0.81h-0.28c-0.51,0-0.77,0.27-0.77,0.81v2.24
		c0,0.25,0.05,0.42,0.15,0.51c0.1,0.09,0.26,0.2,0.49,0.34l1.71,0.92c0.38,0.21,0.64,0.38,0.8,0.5c0.16,0.12,0.28,0.26,0.37,0.43
		c0.09,0.17,0.13,0.49,0.13,0.97v2.88c0,1.52-0.73,2.28-2.18,2.28h-1.11c-1.44,0-2.16-0.83-2.16-2.48v-0.68h1.81v0.73
		c0,0.53,0.27,0.79,0.81,0.79h0.32c0.48,0,0.71-0.26,0.71-0.79v-2.29c0-0.25-0.05-0.42-0.15-0.51c-0.1-0.09-0.26-0.2-0.49-0.34
		l-1.71-0.96c-0.38-0.2-0.65-0.37-0.82-0.51c-0.17-0.14-0.29-0.32-0.37-0.54c-0.08-0.22-0.11-0.5-0.11-0.86v-2.76
		c0-1.54,0.72-2.31,2.16-2.31h1.13c1.44,0,2.16,0.77,2.16,2.31v1.32H56.91z"/>
	<path class="st1" d="M63.47,79.11v11.86h-1.8V79.11h-1.73v-1.64h5.26v1.64H63.47z"/>
	<path class="st1" d="M66.61,90.98v-13.5h4.48v1.64h-2.67v4.1h2.37v1.64h-2.37v4.49h2.67v1.64H66.61z"/>
	<path class="st1" d="M72.76,77.48h3.29c1.45,0,2.18,0.77,2.18,2.31v4c0,1.53-0.72,2.29-2.16,2.29h-1.5v4.89h-1.81V77.48z
		 M74.56,84.45h1.15c0.48,0,0.71-0.26,0.71-0.79V79.9c0-0.53-0.27-0.79-0.81-0.79h-1.05V84.45z"/>
	<path class="st1" d="M85.58,90.98c-1.44,0-2.16-0.77-2.16-2.31v-8.87c0-1.54,0.72-2.31,2.16-2.31h1.26c1.44,0,2.16,0.77,2.16,2.31
		v8.87c0,1.54-0.72,2.31-2.16,2.31H85.58z M85.94,79.11c-0.48,0-0.71,0.26-0.71,0.79v8.65c0,0.53,0.27,0.79,0.81,0.79h0.45
		c0.48,0,0.71-0.26,0.71-0.79V79.9c0-0.53-0.27-0.79-0.81-0.79H85.94z"/>
	<path class="st1" d="M90.92,80.47l-0.41-1.24c0.46-0.18,0.86-0.42,1.18-0.73c0.33-0.31,0.58-0.65,0.77-1.02h0.19l1.18,0.64v12.86
		h-1.79V80.13L90.92,80.47z"/>
</g>
<rect x="29.76" y="100.01" class="st3" width="89.47" height="35.96"/>
<text transform="matrix(1 0 0 1 41.4083 105.8254)"><tspan x="0" y="0" class="st1 st4 st5">Gennemgå ledige</tspan><tspan x="-5.9" y="11.39" class="st1 st4 st5"> stillinger og send os  </tspan><tspan x="6.6" y="22.78" class="st1 st4 st5">en ansøgning!</tspan></text>
<rect x="148.03" y="99.01" class="st3" width="93.33" height="45.35"/>
<text transform="matrix(1 0 0 1 149.0304 104.8254)"><tspan x="0" y="0" class="st2 st4 st5">Vi vurderer ansøgere og </tspan><tspan x="0.76" y="11.39" class="st2 st4 st5">tager telefonisk kontakt </tspan><tspan x="3.39" y="22.78" class="st2 st4 st5">til udvalgte kandidater </tspan><tspan x="17.37" y="34.17" class="st2 st4 st5">ift. et interview</tspan></text>
<rect x="265.06" y="99.01" class="st3" width="89.47" height="40.48"/>
<text transform="matrix(1 0 0 1 274.4054 104.8254)"><tspan x="0" y="0" class="st1 st4 st5">Hvis der er et godt </tspan><tspan x="0.17" y="11.39" class="st1 st4 st5">match byder vi dig </tspan><tspan x="-8.4" y="22.78" class="st1 st4 st5">velkommen, og vi er nu </tspan><tspan x="-8.44" y="34.17" class="st1 st4 st5">klar til at få dig ombord</tspan></text>
<rect x="378.82" y="99.01" class="st3" width="100.79" height="55.46"/>
<text transform="matrix(1 0 0 1 388.4855 104.8254)"><tspan x="0" y="0" class="st2 st4 st5">Du bliver kontaktet af </tspan><tspan x="-8.58" y="11.39" class="st2 st4 st5">vores dygtige konsulenter </tspan><tspan x="13.75" y="22.78" class="st2 st4 st5">med jobtilbud.   </tspan><tspan x="6.23" y="34.17" class="st2 st4 st5">Og så er du i gang</tspan></text>
</svg>
